<?xml version="1.0" encoding="UTF-8"?>
<svg width="80px" height="80px" viewBox="0 0 80 80" version="1.1" xmlns="http://www.w3.org/2000/svg" xmlns:xlink="http://www.w3.org/1999/xlink">
    <!-- Generator: Sketch 52.2 (67145) - http://www.bohemiancoding.com/sketch -->
    <title>合并形状</title>
    <desc>Created with Sketch.</desc>
    <g id="确定版" stroke="none" stroke-width="1" fill="none" fill-rule="evenodd" fill-opacity="0.5">
        <g id="拍照上传-面相-copy-2" transform="translate(-39.000000, -1214.000000)" fill="#85A8E6">
            <path d="M79,1294 C56.90861,1294 39,1276.09139 39,1254 C39,1231.90861 56.90861,1214 79,1214 C101.09139,1214 119,1231.90861 119,1254 C119,1276.09139 101.09139,1294 79,1294 Z M66.6779825,1251.91529 L66.6779825,1251.91708 C66.3283902,1252.24493 66.127565,1252.70355 66.1226038,1253.18544 C66.1177106,1253.66733 66.3090893,1254.13007 66.6518854,1254.4652 L84.0499436,1271.50422 C84.7394097,1272.17976 85.8404485,1272.1628 86.5091864,1271.46646 C87.1779242,1270.77005 87.1612058,1269.65799 86.4718077,1268.98245 L70.3873029,1253.22979 L86.4457106,1238.14134 C87.125798,1237.47561 87.153798,1236.38277 86.5087106,1235.68238 C85.8636232,1234.98199 84.7824291,1234.93147 84.0760407,1235.56864 L66.6779825,1251.91529 Z" id="合并形状"></path>
        </g>
    </g>
</svg>