<?xml version="1.0" encoding="UTF-8"?>
<svg width="109px" height="60px" viewBox="0 0 109 60" version="1.1" xmlns="http://www.w3.org/2000/svg" xmlns:xlink="http://www.w3.org/1999/xlink">
    <!-- Generator: Sketch 52.2 (67145) - http://www.bohemiancoding.com/sketch -->
    <title>合并形状 copy 10</title>
    <desc>Created with Sketch.</desc>
    <g id="确定版" stroke="none" stroke-width="1" fill="none" fill-rule="evenodd">
        <g id="拍照上传-舌诊-问诊2" transform="translate(-529.000000, -326.000000)" fill="#85A8E6" stroke="#85A8E6">
            <g id="分组" transform="translate(0.000000, 236.000000)">
                <path d="M542,146.5 L545.513622,146.5 L545.610236,146.875371 C546.004868,148.408623 547.393756,149.5 549,149.5 L618,149.5 C619.606244,149.5 620.995132,148.408623 621.389764,146.875371 L621.486378,146.5 L625,146.5 C627.485281,146.5 629.5,144.485281 629.5,142 L629.5,135.5 L632,135.5 C635.037566,135.5 637.5,133.037566 637.5,130 L637.5,110 C637.5,106.962434 635.037566,104.5 632,104.5 L629.5,104.5 L629.5,99 C629.5,96.5147186 627.485281,94.5 625,94.5 L621.5,94.5 L621.5,94 C621.5,92.0670034 619.932997,90.5 618,90.5 L549,90.5 C547.067003,90.5 545.5,92.0670034 545.5,94 L545.5,94.5 L542,94.5 C539.514719,94.5 537.5,96.5147186 537.5,99 L537.5,104.5 L535,104.5 C531.962434,104.5 529.5,106.962434 529.5,110 L529.5,130 C529.5,133.037566 531.962434,135.5 535,135.5 L537.5,135.5 L537.5,142 C537.5,144.485281 539.514719,146.5 542,146.5 Z" id="合并形状-copy-10"></path>
            </g>
        </g>
    </g>
</svg>