<?xml version="1.0" encoding="UTF-8"?>
<svg width="64px" height="64px" viewBox="0 0 64 64" version="1.1" xmlns="http://www.w3.org/2000/svg" xmlns:xlink="http://www.w3.org/1999/xlink">
    <!-- Generator: Sketch 52.2 (67145) - http://www.bohemiancoding.com/sketch -->
    <title>删 除</title>
    <desc>Created with Sketch.</desc>
    <g id="确定版-copy" stroke="none" stroke-width="1" fill="none" fill-rule="evenodd">
        <g id="历史记录-copy-3" transform="translate(-298.000000, -638.000000)" fill="#FFFFFF">
            <g id="分组-2" transform="translate(6.000000, 346.000000)">
                <g id="删-除" transform="translate(292.000000, 292.000000)">
                    <circle id="椭圆形" opacity="0.504510789" cx="32" cy="32" r="32"></circle>
                    <g id="分组-3" transform="translate(14.000000, 14.000000)" fill-rule="nonzero">
                        <path d="M12.3603102,31.2142857 C12.9929541,31.2135526 13.5056401,30.6724937 13.5063348,30.0048382 L13.5063348,14.7808761 C13.5063348,14.1139617 12.9922519,13.5714286 12.3603102,13.5714286 C11.7283686,13.5714286 11.2142857,14.1139617 11.2142857,14.7808761 L11.2142857,30.0046165 C11.2386558,30.6677618 11.7529488,31.2142857 12.3603102,31.2142857 Z M24.9970427,31.2142857 C25.6296525,31.2135523 26.1422782,30.6724578 26.1428571,30.0048382 L26.1428571,14.7808761 C26.1428571,14.1139617 25.6289844,13.5714286 24.9970427,13.5714286 C24.365101,13.5714286 23.8512283,14.1139617 23.8512283,14.7808761 L23.8512283,30.0046165 C23.851807,30.6722721 24.3643989,31.2134302 24.9970427,31.2142857 Z M18.6786765,31.2142857 C19.3113204,31.2135526 19.8240063,30.6724937 19.824701,30.0048382 L19.824701,14.7808761 C19.824701,14.1139617 19.3106181,13.5714286 18.6786765,13.5714286 C18.0467348,13.5714286 17.5326519,14.1139617 17.5326519,14.7808761 L17.5326519,30.0046165 C17.5333464,30.672308 18.0459986,31.2134304 18.6786765,31.2142857 Z" id="形状"></path>
                        <path d="M35.8497843,4.6308285 L27.0680824,4.6308285 L27.0680824,3.0194195 C27.0680824,1.35462109 25.7466522,-1.77635684e-14 24.1226446,-1.77635684e-14 L13.2635963,-1.77635684e-14 C11.6395887,-1.77635684e-14 10.3181585,1.35462109 10.3181585,3.0194195 L10.3181585,4.6308285 L1.50735856,4.6308285 C0.872401002,4.63154326 0.357840103,5.15902859 0.357142857,5.80993462 C0.35784031,6.46080557 0.872435112,6.98822895 1.50735856,6.98882459 L5.77211802,6.98882459 L5.77211802,31.7535115 C5.77211802,34.4495685 7.91166683,36.6428571 10.5418759,36.6428571 L26.8154778,36.6428571 C29.445476,36.6428571 31.5850248,34.4495685 31.5850248,31.7535115 L31.5850248,6.95899569 L35.8497843,6.95899569 C36.4847419,6.95828093 36.9993028,6.43079561 37,5.77988957 C37,5.13554212 36.4945798,4.6308285 35.8497843,4.6308285 Z M12.5894918,3.0194195 C12.5875531,2.83554326 12.6579519,2.65861843 12.7847937,2.5285907 C12.9116355,2.39856297 13.0842253,2.32639594 13.2635963,2.32838334 L24.1224338,2.32838334 C24.3018047,2.32639594 24.4743945,2.39856297 24.6012363,2.5285907 C24.7280781,2.65861843 24.7984769,2.83554326 24.7965382,3.0194195 L24.7965772,4.6308285 L12.5894528,4.6308285 L12.5894918,3.0194195 Z M29.2848043,31.7535115 C29.2848043,33.1494175 28.1769705,34.2850772 26.8154778,34.2850772 L10.5418759,34.2850772 C9.18017237,34.2850772 8.07233858,33.1494175 8.07233858,31.7535115 L8.07233858,6.95899569 L29.2848043,6.95899569 L29.2848043,31.7535115 Z" id="形状"></path>
                    </g>
                </g>
            </g>
        </g>
    </g>
</svg>