<?xml version="1.0" encoding="UTF-8"?>
<svg width="42px" height="40px" viewBox="0 0 42 40" version="1.1" xmlns="http://www.w3.org/2000/svg" xmlns:xlink="http://www.w3.org/1999/xlink">
    <!-- Generator: Sketch 52.2 (67145) - http://www.bohemiancoding.com/sketch -->
    <title>人脸定位</title>
    <desc>Created with Sketch.</desc>
    <g id="确定版" stroke="none" stroke-width="1" fill="none" fill-rule="evenodd">
        <g id="面相-" transform="translate(-444.000000, -1246.000000)" fill="#FFFFFF" fill-rule="nonzero">
            <g id="分组-2-copy" transform="translate(444.000000, 1242.000000)">
                <g id="人脸定位" transform="translate(0.000000, 4.000000)">
                    <path d="M32.6845919,18.7289359 L32.6845919,17.8223345 C32.6845919,9.84515328 27.4698947,5.49437766 20.9944519,5.49437766 C14.519009,5.49437766 9.30431176,9.84515328 9.30431176,17.8223345 L9.30431176,19.0933988 C9.30431176,19.4578617 9.30431176,19.6355373 9.4850638,19.8177688 C10.2080721,27.2528115 15.0612651,34.501067 20.9944519,34.501067 C26.9276386,34.501067 31.7853504,27.0660243 32.5038399,19.8177688 C32.6845919,19.4533059 32.6845919,19.2756303 32.6845919,19.0933988 L32.6845919,18.7289359 Z M21.8936934,21.813203 L21.8936934,16.3735946 C27.4698947,16.555826 30.5246047,18.0045659 30.8861089,18.9111674 L30.8861089,19.0933988 C30.5291235,20.1822317 27.4698947,21.6309716 21.8936934,21.813203 Z M11.2880657,19.2756303 L11.2880657,18.9111674 C11.6495699,18.004566 14.7042799,16.555826 20.0997291,16.3735946 L20.0997291,21.813203 C14.8805131,21.6309716 11.645051,20.1822317 11.2880657,19.2756303 Z M30.7053568,16.555826 C28.7261216,15.4669932 25.3099075,14.7426232 21.8936934,14.7426232 L21.8936934,7.30758047 C26.9321573,7.67204336 30.3483715,11.298449 30.7053568,16.555826 Z M20.0952103,7.30758047 L20.0952103,14.5603918 C16.6789962,14.7426232 13.2627821,15.2847617 11.2835469,16.3735946 C11.8258032,11.298449 15.0612652,7.84971898 20.0952103,7.30758047 Z M11.645051,21.813203 C13.6242862,22.9020359 16.8597483,23.4441744 20.0952103,23.6264059 L20.0952103,32.69242 C16.3220109,31.9634942 12.9057967,27.2528115 11.645051,21.813203 Z M21.8936934,32.6878642 L21.8936934,23.6218501 C25.1291555,23.6218501 28.3691363,22.8974801 30.3438526,21.8086473 C29.2683778,27.4304871 25.6714116,31.9634942 21.8936934,32.6878642 Z" id="形状"></path>
                    <path d="M40.8681419,39.7083304 L30.6014243,39.7083304 C30.0953185,39.7083304 29.7338144,39.3438675 29.7338144,38.8336195 C29.7338144,38.3233715 30.1676194,37.9589086 30.6014243,37.9589086 L39.9282311,37.9589086 L39.9282311,29.6491549 C39.9282311,29.1389069 40.3620361,28.774444 40.7958411,28.774444 C41.3019469,28.774444 41.663451,29.1389069 41.663451,29.6491549 L41.663451,38.8336195 C41.7357518,39.3438675 41.3742477,39.7083304 40.8681419,39.7083304 Z" id="路径"></path>
                    <path d="M40.8319915,11.5900193 C40.3258857,11.5900193 39.9643816,11.2255564 39.9643815,10.7153084 L39.9643815,2.04109188 L30.5652739,2.04109188 C30.0591681,2.04109188 29.697664,1.67662898 29.697664,1.16638098 C29.697664,0.656132969 30.131469,0.291670079 30.5652739,0.291670079 L40.7596907,0.291670079 C41.2657965,0.291670079 41.6273006,0.656132969 41.6273006,1.16638098 L41.6273006,10.7153084 C41.6996014,11.2255564 41.3380973,11.5900193 40.8319915,11.5900193 Z" id="路径"></path>
                    <path d="M10.483719,2.04109188 L2.09682296,2.04109188 L2.09682296,10.7153084 C2.09682296,11.2255564 1.66301797,11.5900193 1.22921303,11.5900193 C0.72310722,11.5900193 0.361603107,11.2255564 0.361603107,10.7153084 L0.361603107,1.16638098 C0.361603107,0.656132969 0.79540805,0.291670079 1.22921303,0.291670079 L10.5560198,0.291670079 C11.0621256,0.291670079 11.4236297,0.656132969 11.4236297,1.16638098 C11.4236297,1.67662898 10.9898248,2.04109188 10.483719,2.04109188 Z" id="路径"></path>
                    <path d="M1.1569122,28.7015514 C1.66301801,28.7015514 2.02452213,29.0660143 2.02452213,29.5762623 L2.02452213,37.886016 L10.483719,37.886016 C10.9898248,37.886016 11.3513289,38.2504789 11.3513289,38.7607269 C11.3513289,39.270975 10.917524,39.6354378 10.483719,39.6354378 L1.1569122,39.6354378 C0.650806389,39.6354378 0.289302277,39.2709749 0.289302277,38.7607269 L0.289302277,29.6491549 C0.289302277,29.1389069 0.650806428,28.7015514 1.1569122,28.7015514 Z" id="路径"></path>
                </g>
            </g>
        </g>
    </g>
</svg>