<?xml version="1.0" encoding="UTF-8"?>
<svg width="40px" height="44px" viewBox="0 0 40 44" version="1.1" xmlns="http://www.w3.org/2000/svg" xmlns:xlink="http://www.w3.org/1999/xlink">
    <!-- Generator: Sketch 52.2 (67145) - http://www.bohemiancoding.com/sketch -->
    <title>Shape</title>
    <desc>Created with Sketch.</desc>
    <g id="切图" stroke="none" stroke-width="1" fill="none" fill-rule="evenodd">
        <path d="M35.1894826,8.80001024 C34.3886816,8.80001024 33.6362807,9.01561049 32.98948,9.39181093 L32.98948,6.60000768 C32.98948,4.17340486 31.0160777,2.20000256 28.5894749,2.20000256 C27.6830738,2.20000256 26.8426728,2.47500288 26.140872,2.94580343 C25.5380713,1.23200143 23.9056694,0 21.9894672,0 C20.073265,0 18.4386631,1.23200143 17.8380624,2.94580343 C17.1384615,2.47500288 16.2958606,2.20000256 15.3894595,2.20000256 C12.9628567,2.20000256 10.9894544,4.17340486 10.9894544,6.60000768 L10.9894544,22.8206437 L8.02825094,17.6880206 C7.45405028,16.6430194 6.51684919,15.8994185 5.39044788,15.5914181 C4.2926466,15.2922178 3.15084527,15.450618 2.17404413,16.0358187 C0.178641811,17.2326201 -0.582559075,19.9386232 0.480042161,22.0682085 C0.546042238,22.2024086 1.94964387,25.077812 6.33204897,33.8382222 C8.39565137,37.963227 10.6594368,40.9134218 13.0618654,42.603041 C14.9472676,43.9296425 16.2496691,43.9978426 16.4916694,43.9978426 L27.4916822,43.9978426 C29.3638844,43.9978426 31.1040864,43.3884419 32.666071,42.1894405 C34.1334727,41.0608392 35.4072742,39.4284373 36.4500754,37.3406263 C38.5048778,33.2310215 39.5916791,27.5462321 39.5916791,20.8977985 L39.5916791,13.1977896 C39.5916791,10.7711868 37.6182768,8.79778446 35.191674,8.79778446 L35.1894826,8.80001024 Z M37.3894851,20.9000243 C37.3894851,27.2074145 36.3840839,32.5512293 34.4810817,36.3572337 C33.2402803,38.8388366 31.0182777,41.8000486 27.4894564,41.8000486 L16.5114436,41.8000486 C16.4256435,41.7934486 15.4994425,41.6900485 14.1024408,40.6450473 C12.7098392,39.6022461 10.5714367,37.4066435 8.29881688,32.8570382 C3.83942888,23.9382193 2.4688101,21.1288332 2.45561868,21.1024074 C2.45341868,21.0980074 2.45341868,21.0958074 2.45121867,21.0936074 C1.89901803,19.9870061 2.29061849,18.5372044 3.30701967,17.9278037 C3.7646202,17.6528034 4.29922082,17.5802033 4.81402142,17.7188034 C5.36182206,17.8684036 5.8216226,18.238004 6.10542293,18.7572046 C6.10982293,18.7638046 6.11422294,18.7726047 6.11862294,18.7792047 L9.55282694,24.7302116 C10.2546278,26.0128131 11.0444287,26.5518137 11.9002297,26.3340135 C12.7582307,26.1162132 13.1916312,25.2582122 13.1916312,23.7886105 L13.1916312,6.5999733 C13.1916312,5.38777189 14.1794323,4.39997074 15.3916337,4.39997074 C16.6038351,4.39997074 17.5916363,5.38777189 17.5916363,6.5999733 L17.5916363,20.8999899 C17.5916363,21.5071907 18.0844369,21.9999912 18.6916376,21.9999912 C19.2988383,21.9999912 19.7916389,21.5071907 19.7916389,20.8999899 L19.7916389,4.39997074 C19.7916389,3.18776933 20.77944,2.19996818 21.9916414,2.19996818 C23.2038428,2.19996818 24.191644,3.18776933 24.191644,4.39997074 L24.191644,20.8999899 C24.191644,21.5071907 24.6844445,21.9999912 25.2916453,21.9999912 C25.898846,21.9999912 26.3916465,21.5071907 26.3916465,20.8999899 L26.3916465,6.5999733 C26.3916465,5.38777189 27.3794477,4.39997074 28.5916491,4.39997074 C29.8038505,4.39997074 30.7916517,5.38777189 30.7916517,6.5999733 L30.7916517,23.0999925 C30.7916517,23.7071932 31.2844522,24.1999938 31.8916529,24.1999938 C32.4988536,24.1999938 32.9916542,23.7071932 32.9916542,23.0999925 L32.9916542,13.199981 C32.9916542,11.9877796 33.9794554,10.9999784 35.1916568,10.9999784 C36.4038582,10.9999784 37.3916593,11.9877796 37.3916593,13.199981 L37.3916593,20.8999899 L37.3894851,20.9000243 Z" id="Shape" fill="#FFFFFF" fill-rule="nonzero"></path>
    </g>
</svg>