<?xml version="1.0" encoding="UTF-8"?>
<svg width="52px" height="52px" viewBox="0 0 52 52" version="1.1" xmlns="http://www.w3.org/2000/svg" xmlns:xlink="http://www.w3.org/1999/xlink">
    <!-- Generator: Sketch 52.2 (67145) - http://www.bohemiancoding.com/sketch -->
    <title>分享</title>
    <desc>Created with Sketch.</desc>
    <g id="确定版" stroke="none" stroke-width="1" fill="none" fill-rule="evenodd">
        <g id="面相-" transform="translate(-485.000000, -1047.000000)" fill="#9D7747">
            <g id="分组-3" transform="translate(212.000000, 1047.000000)">
                <g id="分享" transform="translate(273.000000, 0.000000)">
                    <path d="M43.0417995,17.8489702 C47.9658479,17.8489702 51.9575778,13.8533422 51.9575778,8.92448512 C51.9575778,3.99562809 47.9658479,3.01805449e-16 43.0417995,0 C38.1177511,-3.01805449e-16 34.1260212,3.99562809 34.1260212,8.92448512 C34.1388371,9.36281802 34.1785376,9.79994918 34.2448982,10.2334096 L15.4028867,17.4324943 C12.1327649,13.9609587 6.71312821,13.6781947 3.10016538,16.7906125 C-0.512797447,19.9030303 -1.0409183,25.3095409 1.90131681,29.0635372 C4.84355193,32.8175336 10.2152602,33.5909538 14.0952392,30.819222 L26.815083,39.3272311 C26.2610799,40.4986195 25.9767155,41.7795091 25.9829436,43.0755149 C25.9829436,48.0043719 29.9746736,52 34.898722,52 C39.8227703,52 43.8145003,48.0043719 43.8145003,43.0755149 C43.8145003,38.1466578 39.8227703,34.1510298 34.898722,34.1510298 C32.5605469,34.1354065 30.313274,35.056617 28.6576771,36.7093822 L16.3539031,28.4393593 C17.981122,25.9902766 18.292669,22.8940393 17.1860424,20.1693364 L35.2553531,13.208238 C36.7849562,16.08587 39.7854722,17.8741814 43.0417995,17.8489702 Z M8.86464932,29.2128147 C6.55674805,29.2128147 4.47609759,27.8212109 3.592902,25.6869059 C2.70970641,23.5526009 3.19789593,21.0959096 4.82982856,19.4623832 C6.46176119,17.8288569 8.91605573,17.3401906 11.0482785,18.2242487 C13.1805012,19.1083068 14.5707474,21.1909891 14.5707474,23.5011442 C14.5707474,26.6556127 12.0160403,29.2128146 8.86464932,29.2128147 Z M34.898722,37.3638444 C37.2066232,37.3638444 39.2872737,38.7554482 40.1704693,40.8897532 C41.0536649,43.0240582 40.5654753,45.4807495 38.9335427,47.1142758 C37.3016101,48.7478021 34.8473155,49.2364684 32.7150928,48.3524104 C30.58287,47.4683523 29.1926239,45.38567 29.1926239,43.0755149 C29.1926239,39.9210464 31.747331,37.3638444 34.898722,37.3638444 Z M43.0417995,3.21281467 C45.3497008,3.21281465 47.4303512,4.60441848 48.3135468,6.73872348 C49.1967424,8.87302847 48.7085529,11.3297198 47.0766202,12.9632461 C45.4446876,14.5967724 42.990393,15.0854387 40.8581703,14.2013806 C38.7259475,13.3173226 37.3357014,11.2346402 37.3357014,8.92448512 C37.3357014,5.77001665 39.8904085,3.2128147 43.0417995,3.21281467 Z" id="形状" fill-rule="nonzero"></path>
                    <path d="M29.0143083,43.3135012 C29.0143083,46.6322649 31.7020731,49.3226545 35.017599,49.3226545 C38.3331249,49.3226545 41.0208897,46.6322649 41.0208897,43.3135012 C41.0208897,39.9947374 38.3331249,37.3043478 35.017599,37.3043478 C31.7020731,37.3043478 29.0143083,39.9947374 29.0143083,43.3135012 Z" id="路径"></path>
                </g>
            </g>
        </g>
    </g>
</svg>