<?xml version="1.0" encoding="UTF-8"?>
<svg width="490px" height="420px" viewBox="0 0 490 420" version="1.1" xmlns="http://www.w3.org/2000/svg" xmlns:xlink="http://www.w3.org/1999/xlink">
    <!-- Generator: Sketch 52.2 (67145) - http://www.bohemiancoding.com/sketch -->
    <title>分组 13</title>
    <desc>Created with Sketch.</desc>
    <g id="确定版" stroke="none" stroke-width="1" fill="none" fill-rule="evenodd">
        <g id="分组-13">
            <polygon id="路径-14" fill="#FFFFFF" points="0 383 0 420 39 420 39 399.5 21 399.5 19.5 383"></polygon>
            <polygon id="路径-14-copy" fill="#FFFFFF" transform="translate(470.500000, 401.500000) scale(-1, 1) translate(-470.500000, -401.500000) " points="451 383 451 420 490 420 490 399.5 472 399.5 470.5 383"></polygon>
            <polygon id="路径-14-copy-3" fill="#FFFFFF" transform="translate(19.500000, 18.500000) scale(1, -1) translate(-19.500000, -18.500000) " points="0 0 0 37 39 37 39 16.5 21 16.5 19.5 0"></polygon>
            <polygon id="路径-14-copy-2" fill="#FFFFFF" transform="translate(470.500000, 18.500000) scale(-1, -1) translate(-470.500000, -18.500000) " points="451 0 451 37 490 37 490 16.5 472 16.5 470.5 0"></polygon>
            <g id="分组-2">
                <g id="分组">
                    <rect id="矩形" stroke="#85A8E6" stroke-width="4" x="2" y="2" width="11" height="11"></rect>
                    <rect id="矩形-copy-2" stroke="#85A8E6" stroke-width="4" x="2" y="20" width="11" height="11"></rect>
                    <rect id="矩形-copy" stroke="#85A8E6" stroke-width="4" x="20" y="2" width="11" height="11"></rect>
                    <rect id="矩形" fill="#85A8E6" x="10" y="11" width="13" height="4"></rect>
                    <rect id="矩形-copy-3" fill="#85A8E6" x="10" y="18" width="27" height="4"></rect>
                    <rect id="矩形-copy-8" fill="#85A8E6" x="39" y="0" width="37" height="4"></rect>
                    <rect id="矩形-copy-6" fill="#85A8E6" x="0" y="36" width="21" height="4"></rect>
                    <rect id="矩形" fill="#85A8E6" x="18" y="9" width="4" height="31"></rect>
                    <rect id="矩形-copy-7" fill="#85A8E6" x="0" y="39" width="4" height="31"></rect>
                    <rect id="矩形-copy-4" fill="#85A8E6" x="11" y="9" width="4" height="17"></rect>
                    <rect id="矩形-copy-5" fill="#85A8E6" x="36" y="0" width="4" height="22"></rect>
                </g>
                <g id="分组-copy" transform="translate(452.000000, 35.000000) scale(-1, 1) translate(-452.000000, -35.000000) translate(414.000000, 0.000000)">
                    <rect id="矩形" stroke="#85A8E6" stroke-width="4" x="2" y="2" width="11" height="11"></rect>
                    <rect id="矩形-copy-2" stroke="#85A8E6" stroke-width="4" x="2" y="20" width="11" height="11"></rect>
                    <rect id="矩形-copy" stroke="#85A8E6" stroke-width="4" x="20" y="2" width="11" height="11"></rect>
                    <rect id="矩形" fill="#85A8E6" x="10" y="11" width="13" height="4"></rect>
                    <rect id="矩形-copy-3" fill="#85A8E6" x="10" y="18" width="27" height="4"></rect>
                    <rect id="矩形-copy-8" fill="#85A8E6" x="39" y="0" width="37" height="4"></rect>
                    <rect id="矩形-copy-6" fill="#85A8E6" x="0" y="36" width="21" height="4"></rect>
                    <rect id="矩形" fill="#85A8E6" x="18" y="9" width="4" height="31"></rect>
                    <rect id="矩形-copy-7" fill="#85A8E6" x="0" y="39" width="4" height="31"></rect>
                    <rect id="矩形-copy-4" fill="#85A8E6" x="11" y="9" width="4" height="17"></rect>
                    <rect id="矩形-copy-5" fill="#85A8E6" x="36" y="0" width="4" height="22"></rect>
                </g>
                <g id="分组-copy-3" transform="translate(38.000000, 385.000000) scale(1, -1) translate(-38.000000, -385.000000) translate(0.000000, 350.000000)">
                    <rect id="矩形" stroke="#85A8E6" stroke-width="4" x="2" y="2" width="11" height="11"></rect>
                    <rect id="矩形-copy-2" stroke="#85A8E6" stroke-width="4" x="2" y="20" width="11" height="11"></rect>
                    <rect id="矩形-copy" stroke="#85A8E6" stroke-width="4" x="20" y="2" width="11" height="11"></rect>
                    <rect id="矩形" fill="#85A8E6" x="10" y="11" width="13" height="4"></rect>
                    <rect id="矩形-copy-3" fill="#85A8E6" x="10" y="18" width="27" height="4"></rect>
                    <rect id="矩形-copy-8" fill="#85A8E6" x="39" y="0" width="37" height="4"></rect>
                    <rect id="矩形-copy-6" fill="#85A8E6" x="0" y="36" width="21" height="4"></rect>
                    <rect id="矩形" fill="#85A8E6" x="18" y="9" width="4" height="31"></rect>
                    <rect id="矩形-copy-7" fill="#85A8E6" x="0" y="39" width="4" height="31"></rect>
                    <rect id="矩形-copy-4" fill="#85A8E6" x="11" y="9" width="4" height="17"></rect>
                    <rect id="矩形-copy-5" fill="#85A8E6" x="36" y="0" width="4" height="22"></rect>
                </g>
                <g id="分组-copy-2" transform="translate(452.000000, 385.000000) scale(-1, -1) translate(-452.000000, -385.000000) translate(414.000000, 350.000000)">
                    <rect id="矩形" stroke="#85A8E6" stroke-width="4" x="2" y="2" width="11" height="11"></rect>
                    <rect id="矩形-copy-2" stroke="#85A8E6" stroke-width="4" x="2" y="20" width="11" height="11"></rect>
                    <rect id="矩形-copy" stroke="#85A8E6" stroke-width="4" x="20" y="2" width="11" height="11"></rect>
                    <rect id="矩形" fill="#85A8E6" x="10" y="11" width="13" height="4"></rect>
                    <rect id="矩形-copy-3" fill="#85A8E6" x="10" y="18" width="27" height="4"></rect>
                    <rect id="矩形-copy-8" fill="#85A8E6" x="39" y="0" width="37" height="4"></rect>
                    <rect id="矩形-copy-6" fill="#85A8E6" x="0" y="36" width="21" height="4"></rect>
                    <rect id="矩形" fill="#85A8E6" x="18" y="9" width="4" height="31"></rect>
                    <rect id="矩形-copy-7" fill="#85A8E6" x="0" y="39" width="4" height="31"></rect>
                    <rect id="矩形-copy-4" fill="#85A8E6" x="11" y="9" width="4" height="17"></rect>
                    <rect id="矩形-copy-5" fill="#85A8E6" x="36" y="0" width="4" height="22"></rect>
                </g>
                <polygon id="矩形-copy-9" fill="#85A8E6" points="39 0 452 0 452 4 39 4"></polygon>
                <polygon id="矩形-copy-10" fill="#85A8E6" points="39 416 452 416 452 420 39 420"></polygon>
                <rect id="矩形-copy-11" fill="#85A8E6" x="0" y="51" width="4" height="331"></rect>
                <rect id="矩形-copy-12" fill="#85A8E6" x="486" y="51" width="4" height="331"></rect>
            </g>
        </g>
    </g>
</svg>