<?xml version="1.0" encoding="UTF-8"?>
<svg width="47px" height="41px" viewBox="0 0 47 41" version="1.1" xmlns="http://www.w3.org/2000/svg" xmlns:xlink="http://www.w3.org/1999/xlink">
    <!-- Generator: Sketch 52.2 (67145) - http://www.bohemiancoding.com/sketch -->
    <title>分组 12</title>
    <desc>Created with Sketch.</desc>
    <g id="确定版" stroke="none" stroke-width="1" fill="none" fill-rule="evenodd">
        <g id="面相-" transform="translate(-112.000000, -1245.000000)" stroke="#FFFFFF" stroke-width="1.69230769">
            <g id="分组-2" transform="translate(113.000000, 1242.000000)">
                <g id="分组-12" transform="translate(0.000000, 4.000000)">
                    <path d="M21.9358783,25.3916467 C34.2666974,25.3916467 41.0615485,18.0460721 44.6538462,10.2380622 C40.8913071,3.53491143 37.8859909,0.735233044 32.6516665,0.0139693643 C28.6140798,-0.231626185 26.3781223,2.84247612 23.1136889,2.84247612 C20.1281423,2.84247612 17.0689655,0.0139693643 13.0559274,0.140925077 C7.73776213,0.885979458 3.2760202,5.12379822 -2.84217094e-14,10.2380622 C1.89140066,16.8868389 9.60505917,25.3916467 21.9358783,25.3916467 Z" id="椭圆形"></path>
                    <path d="M1.38461538,10.4982678 C6.30043219,8.76412152 9.80988111,7.89704839 11.9129622,7.89704839 C15.0675837,7.89704839 18.313531,11.9996125 31.5158127,7.89704839 C31.5918904,7.69858939 35.6277604,7.02284271 44.0135118,10.4982678 C44.0135118,10.434992 33.3706498,18.8090772 18.5406869,18.8372193 C14.7410561,18.8444297 9.02236564,16.0647792 1.38461538,10.4982678 Z" id="路径-13"></path>
                    <path d="M15.6192829,13.1778241 L15.6192985,13.1777683 C15.2404541,13.0717206 14.8467724,13.0285724 14.4539516,13.050044 C12.4713444,13.1584139 10.9519747,14.8534857 11.0615092,16.8950606 L10.885803,28.5220411 C10.8848264,28.599591 10.8848264,28.599591 10.884631,28.6771468 C10.884631,34.3463262 15.480409,38.9421041 21.1495883,38.9421041 L24.1965649,38.9421041 C29.804349,38.9421041 34.3742961,34.4417264 34.4603145,28.834602 L34.6418718,17.2992958 C34.6192396,17.045442 34.5746714,16.7940242 34.5086666,16.5478589 C33.8771045,14.1924448 31.4556829,12.7949892 29.1002716,13.4265584 C26.1532658,14.2167452 24.056467,14.6135697 22.7615721,14.6135697 C21.3957711,14.6135697 19.0360491,14.134259 15.6192829,13.1778241 Z" id="矩形" fill="#02C160"></path>
                </g>
            </g>
        </g>
    </g>
</svg>