<?xml version="1.0" encoding="UTF-8"?>
<svg width="470px" height="80px" viewBox="0 0 470 80" version="1.1" xmlns="http://www.w3.org/2000/svg" xmlns:xlink="http://www.w3.org/1999/xlink">
    <!-- Generator: Sketch 52.2 (67145) - http://www.bohemiancoding.com/sketch -->
    <title>拍照上传按钮</title>
    <desc>Created with Sketch.</desc>
    <g id="确定版" stroke="none" stroke-width="1" fill="none" fill-rule="evenodd">
        <g id="拍照上传-舌诊-问诊" transform="translate(-140.000000, -1226.000000)" fill="#DEDEDE">
            <path d="M591,1301 L591,1302 C591,1304.20914 589.209139,1306 587,1306 L163,1306 C160.790861,1306 159,1304.20914 159,1302 L159,1301 L154,1301 C151.238576,1301 149,1298.76142 149,1296 L149,1284.95062 C143.946677,1284.4489 140,1280.18535 140,1275 L140,1257 C140,1251.81465 143.946677,1247.5511 149,1247.04938 L149,1236 C149,1233.23858 151.238576,1231 154,1231 L159,1231 L159,1230 C159,1227.79086 160.790861,1226 163,1226 L587,1226 C589.209139,1226 591,1227.79086 591,1230 L591,1231 L596,1231 C598.761424,1231 601,1233.23858 601,1236 L601,1247.04938 C606.053323,1247.5511 610,1251.81465 610,1257 L610,1275 C610,1280.18535 606.053323,1284.4489 601,1284.95062 L601,1296 C601,1298.76142 598.761424,1301 596,1301 L591,1301 Z" id="拍照上传按钮"></path>
        </g>
    </g>
</svg>