<?xml version="1.0" encoding="UTF-8"?>
<svg width="109px" height="60px" viewBox="0 0 109 60" version="1.1" xmlns="http://www.w3.org/2000/svg" xmlns:xlink="http://www.w3.org/1999/xlink">
    <!-- Generator: Sketch 52.2 (67145) - http://www.bohemiancoding.com/sketch -->
    <title>合并形状 copy 9</title>
    <desc>Created with Sketch.</desc>
    <g id="确定版" stroke="none" stroke-width="1" fill="none" fill-rule="evenodd">
        <g id="拍照上传-舌诊-问诊2" transform="translate(-409.000000, -326.000000)" stroke="#85A8E6">
            <g id="分组" transform="translate(0.000000, 236.000000)">
                <path d="M422,146.5 L425.513622,146.5 L425.610236,146.875371 C426.004868,148.408623 427.393756,149.5 429,149.5 L498,149.5 C499.606244,149.5 500.995132,148.408623 501.389764,146.875371 L501.486378,146.5 L505,146.5 C507.485281,146.5 509.5,144.485281 509.5,142 L509.5,135.5 L512,135.5 C515.037566,135.5 517.5,133.037566 517.5,130 L517.5,110 C517.5,106.962434 515.037566,104.5 512,104.5 L509.5,104.5 L509.5,99 C509.5,96.5147186 507.485281,94.5 505,94.5 L501.5,94.5 L501.5,94 C501.5,92.0670034 499.932997,90.5 498,90.5 L429,90.5 C427.067003,90.5 425.5,92.0670034 425.5,94 L425.5,94.5 L422,94.5 C419.514719,94.5 417.5,96.5147186 417.5,99 L417.5,104.5 L415,104.5 C411.962434,104.5 409.5,106.962434 409.5,110 L409.5,130 C409.5,133.037566 411.962434,135.5 415,135.5 L417.5,135.5 L417.5,142 C417.5,144.485281 419.514719,146.5 422,146.5 Z" id="合并形状-copy-9"></path>
            </g>
        </g>
    </g>
</svg>