<?xml version="1.0" encoding="UTF-8"?>
<svg width="208px" height="80px" viewBox="0 0 208 80" version="1.1" xmlns="http://www.w3.org/2000/svg" xmlns:xlink="http://www.w3.org/1999/xlink">
    <!-- Generator: Sketch 52.2 (67145) - http://www.bohemiancoding.com/sketch -->
    <title>绿 copy 2</title>
    <desc>Created with Sketch.</desc>
    <g id="切图" stroke="none" stroke-width="1" fill="none" fill-rule="evenodd">
        <g id="绿-copy-2" fill="#E68585">
            <path d="M195.251613,75 L195.251613,76 C195.251613,78.209139 193.460752,80 191.251613,80 L16.7483871,80 C14.5392481,80 12.7483871,78.209139 12.7483871,76 L12.7483871,75 L11.0387097,75 C8.27728593,75 6.03870968,72.7614237 6.03870968,70 L6.03870968,58.1847278 C2.48623827,56.650514 5.40567833e-13,53.1156031 5.38236122e-13,49 L5.38236122e-13,31 C5.37732106e-13,26.8843969 2.48623827,23.349486 6.03870968,21.8152722 L6.03870968,10 C6.03870968,7.23857625 8.27728593,5 11.0387097,5 L12.7483871,5 L12.7483871,4 C12.7483871,1.790861 14.5392481,-6.69961511e-15 16.7483871,-7.10542736e-15 L191.251613,-7.10542736e-15 C193.460752,8.18563707e-15 195.251613,1.790861 195.251613,4 L195.251613,5 L196.96129,5 C199.722714,5 201.96129,7.23857625 201.96129,10 L201.96129,21.8152722 C205.513762,23.349486 208,26.8843969 208,31 L208,49 C208,53.1156031 205.513762,56.650514 201.96129,58.1847278 L201.96129,70 C201.96129,72.7614237 199.722714,75 196.96129,75 L195.251613,75 Z" id="合并形状"></path>
        </g>
    </g>
</svg>