<?xml version="1.0" encoding="UTF-8"?>
<svg width="40px" height="40px" viewBox="0 0 40 40" version="1.1" xmlns="http://www.w3.org/2000/svg" xmlns:xlink="http://www.w3.org/1999/xlink">
    <!-- Generator: Sketch 60.1 (88133) - https://sketch.com -->
    <title>分享</title>
    <desc>Created with Sketch.</desc>
    <g id="面相常规网页版" stroke="none" stroke-width="1" fill="none" fill-rule="evenodd">
        <g id="面相探索首页" transform="translate(-1055.000000, -838.000000)" fill="#85A8E6">
            <g id="分组-3" transform="translate(825.000000, 831.000000)">
                <g id="分享" transform="translate(230.000000, 7.000000)">
                    <path d="M32.7937538,13.5992162 C36.5454099,13.5992162 39.5867281,10.5549279 39.5867281,6.79960808 C39.5867281,3.04428823 36.5454099,0 32.7937538,0 C29.0420977,0 26.0007795,3.04428823 26.0007795,6.79960808 C26.010544,7.13357602 26.0407919,7.46662835 26.0913524,7.79688395 L11.7355334,13.2819011 C9.24401187,10.6369215 5.11476463,10.4214823 2.3620309,12.7928483 C-0.390702838,15.1642144 -0.793080654,19.2834608 1.44862241,22.1436486 C3.69032548,25.0038365 7.78305578,25.5931091 10.7392305,23.4813133 L20.4305405,29.9636063 C20.008443,30.8560928 19.7917843,31.8320087 19.7965296,32.8194417 C19.7965296,36.5747615 22.8378478,39.6190498 26.5895039,39.6190498 C30.34116,39.6190498 33.3824782,36.5747615 33.3824782,32.8194417 C33.3824782,29.0641219 30.34116,26.0198336 26.5895039,26.0198336 C24.8080371,26.0079302 23.0958291,26.7098049 21.8344219,27.9690546 L12.4601173,21.6680844 C13.6999033,19.8021166 13.9372724,17.4430785 13.0941282,15.3671143 L26.8612229,10.0634199 C28.0266349,12.2559016 30.3127424,13.6184247 32.7937538,13.5992162 Z M6.7540189,22.2573838 C4.99561784,22.2573838 3.41036026,21.1971142 2.73744929,19.570977 C2.06453833,17.9448397 2.43649227,16.0730748 3.67986958,14.8284833 C4.92324689,13.5838917 6.79318569,13.2115745 8.41773644,13.8851426 C10.0422872,14.5587107 11.1015224,16.1455164 11.1015224,17.9056346 C11.1015224,20.3090393 9.15507881,22.2573838 6.7540189,22.2573838 Z M26.5895039,28.4676925 C28.347905,28.4676925 29.9331625,29.5279621 30.6060735,31.1540994 C31.2789845,32.7802366 30.9070305,34.6520015 29.6636532,35.8965931 C28.4202759,37.1411846 26.5503371,37.5135018 24.9257863,36.8399337 C23.3012356,36.1663656 22.2420003,34.57956 22.2420003,32.8194417 C22.2420003,30.416037 24.188444,28.4676925 26.5895039,28.4676925 Z M32.7937538,2.44785893 C34.5521548,2.44785893 36.1374124,3.50812856 36.8103234,5.13426579 C37.4832344,6.76040301 37.1112804,8.63216793 35.8679031,9.87675949 C34.6245258,11.121351 32.754587,11.4936682 31.1300362,10.8201001 C29.5054855,10.146532 28.4462502,8.55972634 28.4462502,6.79960808 C28.4462502,4.3962034 30.3926939,2.44785893 32.7937538,2.44785893 L32.7937538,2.44785893 Z" id="形状" fill-rule="nonzero"></path>
                    <path d="M22.1061409,33.0007646 C22.1061409,35.5293466 24.1539618,37.5791674 26.6800769,37.5791674 C29.206192,37.5791674 31.2540129,35.5293466 31.2540129,33.0007646 C31.2540129,30.4721826 29.206192,28.4223618 26.6800769,28.4223618 C24.1539618,28.4223618 22.1061409,30.4721826 22.1061409,33.0007646 L22.1061409,33.0007646 Z" id="路径"></path>
                </g>
            </g>
        </g>
    </g>
</svg>