<?xml version="1.0" encoding="UTF-8"?>
<svg width="388px" height="100px" viewBox="0 0 388 100" version="1.1" xmlns="http://www.w3.org/2000/svg" xmlns:xlink="http://www.w3.org/1999/xlink">
    <!-- Generator: Sketch 60.1 (88133) - https://sketch.com -->
    <title>编组 2</title>
    <desc>Created with Sketch.</desc>
    <g id="面相触摸屏版" stroke="none" stroke-width="1" fill="none" fill-rule="evenodd">
        <g id="编组-2">
            <g id="绿-copy" fill="#FFFFFF">
                <path d="M358.749979,-7.10542736e-15 C361.511402,-3.94969715e-14 363.749978,2.23857612 363.749978,4.9999997 L363.749,6.249 L369.999978,6.24999963 C373.451757,6.24999963 376.249978,9.04821977 376.249978,12.4999993 L376.249672,26.3116871 C382.566471,26.9387011 387.499977,32.2682084 387.499977,38.7499977 L387.499977,61.2499992 C387.499977,67.7317885 382.566471,73.0612958 376.249672,73.6883097 L376.249978,87.5 C376.249978,90.9517795 373.451757,93.7499996 369.999978,93.7499996 L363.749,93.749 L363.749978,95.0000003 C363.749978,97.7614239 361.511402,100 358.749979,100 L28.7499983,100 C25.9885747,100 23.7499986,97.7614239 23.7499986,95.0000003 L23.749,93.749 L17.499999,93.7499996 C14.0482195,93.7499996 11.2499993,90.9517795 11.2499993,87.5 L11.2493008,73.68821 C4.93298266,73.060731 5.40806227e-13,67.731445 5.40012479e-13,61.2499992 L5.40012479e-13,38.7499977 C5.39218731e-13,32.2685519 4.93298266,26.9392659 11.2493008,26.3117869 L11.2499993,12.4999993 C11.2499993,9.04821977 14.0482195,6.24999963 17.499999,6.24999963 L23.749,6.249 L23.7499986,4.9999997 C23.7499986,2.23857612 25.9885747,-6.59816207e-15 28.7499983,-7.10542736e-15 L358.749979,-7.10542736e-15 Z" id="合并形状"></path>
            </g>
            <g id="分组-2-copy" transform="translate(120.000000, 19.000000)" fill="#25374B" fill-rule="nonzero">
                <path d="M53,58.9 C53.7333333,58.9 54.6583333,58.8 55.775,58.6 C56.8916667,58.4 57.725,58.2 58.275,58 C58.825,57.8 59.1416667,57.6416667 59.225,57.525 C59.3083333,57.4083333 59.35,57.2 59.35,56.9 L59.35,56.9 L59.3,54.65 C59.2666667,53.9833333 59.25,53.05 59.25,51.85 L59.25,35.45 L71.15,35.45 C71.75,35.45 72.05,35.2833333 72.05,34.95 C72.05,34.3833333 71.1083333,33.2166667 69.225,31.45 C67.3416667,29.6833333 66.1,28.8 65.5,28.8 C65.1666667,28.8 64.875,28.9666667 64.625,29.3 C64.375,29.6333333 63.5,31.1333333 62,33.8 L62,33.8 L59.25,33.8 L59.25,20.3 C59.6833333,20.1666667 59.9166667,19.9333333 59.95,19.6 L59.95,19.6 L68.3,19.6 C68.9666667,19.6 69.3,19.45 69.3,19.15 C69.3,18.6166667 68.3083333,17.575 66.325,16.025 C64.3416667,14.475 63.0833333,13.7 62.55,13.7 C62.35,13.7 62.1583333,13.8083333 61.975,14.025 C61.7916667,14.2416667 61.3833333,14.8333333 60.75,15.8 C60.1166667,16.7666667 59.6666667,17.4833333 59.4,17.95 L59.4,17.95 L31.15,17.95 C30.2833333,17.95 29.45,17.9 28.65,17.8 L28.65,17.8 L29.95,20.15 C30.4833333,19.7833333 31.0833333,19.6 31.75,19.6 L31.75,19.6 L37.65,19.6 C37.7833333,23.2666667 37.85,28 37.85,33.8 L37.85,33.8 L27.85,33.8 C26.9833333,33.8 26.15,33.75 25.35,33.65 L25.35,33.65 L26.65,36 C27.1833333,35.6333333 27.7833333,35.45 28.45,35.45 L28.45,35.45 L37.85,35.45 C37.85,39.5833333 37.6,42.7083333 37.1,44.825 C36.6,46.9416667 35.675,48.875 34.325,50.625 C32.975,52.375 30.1666667,54.6833333 25.9,57.55 C25.5,57.8166667 25.3,57.9916667 25.3,58.075 C25.3,58.1583333 25.3666667,58.2 25.5,58.2 C25.9666667,58.2 27.7666667,57.575 30.9,56.325 C34.0333333,55.075 36.5333333,53.6 38.4,51.9 C40.2666667,50.2 41.6083333,48.0916667 42.425,45.575 C43.2416667,43.0583333 43.7166667,39.6833333 43.85,35.45 L43.85,35.45 L52.7,35.45 L52.7,58.15 C52.7,58.65 52.8,58.9 53,58.9 Z M52.7,33.8 L43.9,33.8 L44.15,23.85 L44.2,21.15 C44.2,20.75 44.25,20.4333333 44.35,20.2 C44.45,19.9666667 44.6166667,19.7666667 44.85,19.6 L44.85,19.6 L52.7,19.6 L52.7,33.8 Z M118.7,34.4 C119.7,34.4 120.566667,33.9833333 121.3,33.15 C122.033333,32.3166667 122.4,31.2166667 122.4,29.85 C122.4,28.4833333 121.691667,26.9916667 120.275,25.375 C118.858333,23.7583333 116.941667,22.4416667 114.525,21.425 C112.108333,20.4083333 110.633333,19.9 110.1,19.9 C109.9,19.9 109.8,19.9583333 109.8,20.075 C109.8,20.1916667 109.983333,20.4 110.35,20.7 C112.516667,22.4666667 114.033333,24.8166667 114.9,27.75 L114.9,27.75 L102.2,28 C105.266667,24.7 108,21.2833333 110.4,17.75 C111.066667,16.7833333 111.533333,16.1583333 111.8,15.875 C112.066667,15.5916667 112.316667,15.4166667 112.55,15.35 C113.25,15.1833333 113.6,14.95 113.6,14.65 C113.6,14.35 113.25,14.0583333 112.55,13.775 C111.85,13.4916667 109.316667,12.7333333 104.95,11.5 C104.383333,14.1333333 103.9,16.0583333 103.5,17.275 C103.1,18.4916667 102.45,20.025 101.55,21.875 C100.65,23.725 99.9916667,24.9583333 99.575,25.575 C99.1583333,26.1916667 98.6666667,26.675 98.1,27.025 C97.5333333,27.375 96.825,27.5583333 95.975,27.575 C95.125,27.5916667 94.7,27.8666667 94.7,28.4 C94.7,28.5 94.9583333,29.4083333 95.475,31.125 C95.9916667,32.8416667 96.3083333,33.8 96.425,34 C96.5416667,34.2 96.75,34.3 97.05,34.3 C97.35,34.3 97.7166667,34.2333333 98.15,34.1 C101.816667,33 107.583333,31.5833333 115.45,29.85 C115.483333,29.95 115.533333,30.15 115.6,30.45 C115.9,32.0166667 116.241667,33.0666667 116.625,33.6 C117.008333,34.1333333 117.7,34.4 118.7,34.4 Z M75.15,57.7 C75.6166667,57.7 77.375,56.7583333 80.425,54.875 C83.475,52.9916667 85.9833333,50.8333333 87.95,48.4 C89.1166667,49.8 90,51.3083333 90.6,52.925 C91.2,54.5416667 92.025,55.35 93.075,55.35 C94.125,55.35 94.9666667,54.9916667 95.6,54.275 C96.2333333,53.5583333 96.55,52.6833333 96.55,51.65 C96.55,49.2833333 94.5333333,46.8833333 90.5,44.45 C92.4666667,40.7833333 93.8333333,35.5 94.6,28.6 C94.7,27.7666667 94.8083333,27.2166667 94.925,26.95 C95.0416667,26.6833333 95.25,26.5166667 95.55,26.45 C96.15,26.3166667 96.45,26.0333333 96.45,25.6 C96.45,25.3333333 96.3,25.0916667 96,24.875 C95.7,24.6583333 94.775,24.1583333 93.225,23.375 C91.675,22.5916667 90.725,22.2 90.375,22.2 C90.025,22.2 89.7916667,22.275 89.675,22.425 C89.5583333,22.575 89.1333333,23.3833333 88.4,24.85 L88.4,24.85 L86.35,24.85 L88,17.25 C88.1666667,16.4166667 88.5416667,15.8583333 89.125,15.575 C89.7083333,15.2916667 90,15.025 90,14.775 C90,14.525 89.6083333,14.2583333 88.825,13.975 C88.0416667,13.6916667 85.85,13.2 82.25,12.5 C81.5833333,18.0666667 81.05,22.1833333 80.65,24.85 L80.65,24.85 L77.85,24.85 C76.8833333,24.85 76.05,24.7666667 75.35,24.6 L75.35,24.6 L76.25,26.85 C76.75,26.6166667 77.45,26.5 78.35,26.5 L78.35,26.5 L80.4,26.5 C79.5666667,31.7333333 78.4833333,36.7 77.15,41.4 C80.35,42.5333333 83.1,44.0166667 85.4,45.85 C84.6666667,47.55 83.6,49.2333333 82.2,50.9 C80.8,52.5666667 78.5666667,54.6 75.5,57 C75.1666667,57.2333333 75,57.4083333 75,57.525 C75,57.6416667 75.05,57.7 75.15,57.7 Z M86.6,42.65 C85.6666667,42.25 84.2,41.75 82.2,41.15 C83.9666667,34.75 85.2333333,29.8666667 86,26.5 L86,26.5 L89,26.5 C88.4666667,33.9 87.6666667,39.2833333 86.6,42.65 Z M98.1,57.8 C99.3,57.8 100.475,57.6916667 101.625,57.475 C102.775,57.2583333 103.5,57.05 103.8,56.85 C104.1,56.65 104.25,56.4166667 104.25,56.15 L104.25,56.15 L104.25,52.95 L112.05,52.95 L112.05,56.5 C112.05,57 112.233333,57.25 112.6,57.25 C113.533333,57.25 114.533333,57.175 115.6,57.025 C116.666667,56.875 117.466667,56.6916667 118,56.475 C118.533333,56.2583333 118.841667,56.1 118.925,56 C119.008333,55.9 119.05,55.7666667 119.05,55.6 L119.05,55.6 L118.95,54.5 C118.916667,54.0666667 118.9,53.5666667 118.9,53 L118.9,53 L118.9,40.75 C120.033333,40.35 120.6,39.9333333 120.6,39.5 C120.6,39.3 120.458333,39.075 120.175,38.825 C119.891667,38.575 119.241667,38.1416667 118.225,37.525 C117.208333,36.9083333 116.258333,36.4 115.375,36 C114.491667,35.6 113.858333,35.4 113.475,35.4 C113.091667,35.4 112.825,35.4833333 112.675,35.65 C112.525,35.8166667 112.083333,36.5166667 111.35,37.75 L111.35,37.75 L104.55,37.75 C103.65,37.2833333 101.416667,36.6 97.85,35.7 C97.9166667,37.5333333 97.95,38.95 97.95,39.95 L97.95,39.95 L97.95,53.6 C97.95,54.5 97.9333333,55.2 97.9,55.7 L97.9,55.7 L97.85,57.3 C97.85,57.6333333 97.9333333,57.8 98.1,57.8 Z M112.05,51.3 L104.25,51.3 L104.25,40.05 C104.683333,39.85 104.95,39.6333333 105.05,39.4 L105.05,39.4 L112.05,39.4 L112.05,51.3 Z" id="开始"></path>
            </g>
        </g>
    </g>
</svg>