<?xml version="1.0" encoding="UTF-8"?>
<svg width="96px" height="96px" viewBox="0 0 96 96" version="1.1" xmlns="http://www.w3.org/2000/svg" xmlns:xlink="http://www.w3.org/1999/xlink">
    <!-- Generator: Sketch 60.1 (88133) - https://sketch.com -->
    <title>编组 2备份 3</title>
    <desc>Created with Sketch.</desc>
    <defs>
        <circle id="path-1" cx="40" cy="40" r="40"></circle>
        <filter x="-12.5%" y="-12.5%" width="135.0%" height="135.0%" filterUnits="objectBoundingBox" id="filter-2">
            <feOffset dx="4" dy="4" in="SourceAlpha" result="shadowOffsetOuter1"></feOffset>
            <feGaussianBlur stdDeviation="4" in="shadowOffsetOuter1" result="shadowBlurOuter1"></feGaussianBlur>
            <feColorMatrix values="0 0 0 0 1   0 0 0 0 1   0 0 0 0 1  0 0 0 0.24 0" type="matrix" in="shadowBlurOuter1"></feColorMatrix>
        </filter>
    </defs>
    <g id="页面-1" stroke="none" stroke-width="1" fill="none" fill-rule="evenodd">
        <g id="解经-解卦详情" transform="translate(-1675.000000, -362.000000)">
            <g id="编组-3" transform="translate(1671.000000, 200.000000)">
                <g id="编组-2备份-3" transform="translate(8.000000, 166.000000)">
                    <g id="椭圆形">
                        <use fill="black" fill-opacity="1" filter="url(#filter-2)" xlink:href="#path-1"></use>
                        <use fill="#84A7E8" fill-rule="evenodd" xlink:href="#path-1"></use>
                    </g>
                    <g id="返回首页" transform="translate(18.909091, 18.909091)" fill="#FFFFFF" fill-rule="nonzero">
                        <path d="M40.9847928,18.9004011 C40.9654078,18.8713235 40.9411765,18.842246 40.9169452,18.8131684 C38.8863636,16.4142714 36.5989305,13.8166778 34.1806484,11.0688503 L34.1709559,11.0591578 C31.7332888,8.29194519 29.2132353,5.43265374 26.9209559,2.72359626 C26.8918783,2.68967246 26.8628008,2.66059492 26.8337233,2.63151738 C25.0745321,0.89171123 23.2184158,0.00969251337 21.3089906,0.00969251337 L21.2072193,0.00969251337 C19.3511029,0.0387700535 17.616143,0.896557487 16.0411096,2.55882353 C16.0314171,2.56851604 16.0217246,2.57820856 16.0120321,2.59274733 C13.8215241,5.05464572 11.3063168,7.70070187 8.87349599,10.2643717 L8.86380348,10.2740642 C6.40190508,12.8619652 3.85762032,15.5370989 1.59926471,18.0716912 L1.59441845,18.0765374 C-0.576704545,20.5432821 0.0436163102,22.6998663 0.411931818,23.5091912 C1.09040775,25.0066845 2.65574866,26.0970922 4.13385695,26.0970922 L6.14020722,26.0970922 L6.14020722,36.4050802 C6.14020722,37.723262 6.60544786,39.0705214 7.41961898,40.0979278 C8.36948529,41.2949532 9.6779746,41.9540441 11.1027741,41.9540441 L17.8148396,41.9540441 C18.6193182,41.9540441 19.2687166,41.3046457 19.2687166,40.5001671 L19.2687166,30.264873 L23.6981952,30.264873 L23.6981952,40.5098596 C23.6981952,41.3143382 24.3475936,41.9637366 25.1520722,41.9637366 L31.9126003,41.9637366 C33.1241644,41.9637366 34.3308824,41.4258021 35.2129011,40.4856283 C36.3178476,39.3128342 36.8751671,37.6360294 36.8751671,35.4988302 L36.8751671,26.1019385 L37.9558824,26.1019385 C39.5066845,26.1019385 40.8539439,25.2780749 41.5566511,23.901738 C42.3514372,22.3606283 42.1382019,20.4899733 40.9847928,18.9004011 Z M38.9735963,22.5787099 C38.7700535,22.9761029 38.4114305,23.1941845 37.9607286,23.1941845 L35.4261364,23.1941845 C34.6216578,23.1941845 33.9722594,23.8435829 33.9722594,24.6480615 L33.9722594,35.493984 C33.9722594,36.8460896 33.6717914,37.8831885 33.0999332,38.4889706 C32.605615,39.0123663 32.0676805,39.0559826 31.9126003,39.0559826 L26.6107955,39.0559826 L26.6107955,28.810996 C26.6107955,28.0065174 25.9613971,27.357119 25.1569184,27.357119 L17.8148396,27.357119 C17.010361,27.357119 16.3609626,28.0065174 16.3609626,28.810996 L16.3609626,39.0559826 L11.1076203,39.0559826 C9.89605615,39.0559826 9.05280749,37.665107 9.05280749,36.4147727 L9.05280749,24.6480615 C9.05280749,23.8435829 8.40340909,23.1941845 7.59893048,23.1941845 L4.13870321,23.1941845 C3.93516043,23.1941845 3.32453209,22.8937166 3.06283422,22.317012 C2.77205882,21.6676136 3.01437166,20.8679813 3.77523396,20.0053476 C5.99966578,17.5095254 8.52456551,14.8489305 10.9719251,12.2804144 L10.9864639,12.2658757 C13.424131,9.69251337 15.9490307,7.03676471 18.1734626,4.54094251 C19.181484,3.4796123 20.2185829,2.93198529 21.2556818,2.91260027 C22.3751671,2.89321524 23.5479612,3.4796123 24.7449866,4.65240642 C27.0469586,7.36631016 29.5621658,10.2207553 31.9901404,12.9782754 L31.9998329,12.9879679 C34.3938837,15.7067179 36.6570856,18.275234 38.6585896,20.6450535 C39.138369,21.3283757 39.2546791,22.0310829 38.9735963,22.5787099 Z" id="形状"></path>
                    </g>
                </g>
            </g>
        </g>
    </g>
</svg>