<?xml version="1.0" encoding="UTF-8"?>
<svg width="310px" height="80px" viewBox="0 0 310 80" version="1.1" xmlns="http://www.w3.org/2000/svg" xmlns:xlink="http://www.w3.org/1999/xlink">
    <!-- Generator: Sketch 60.1 (88133) - https://sketch.com -->
    <title>绿 copy</title>
    <desc>Created with Sketch.</desc>
    <g id="面相常规网页版" stroke="none" stroke-width="1" fill="none" fill-rule="evenodd">
        <g id="面相探索首页" transform="translate(-805.000000, -970.000000)" fill="#85A8E6">
            <g id="编组-4" transform="translate(805.000000, 970.000000)">
                <g id="绿-copy">
                    <path d="M286.999983,-7.10542736e-15 C289.209122,-7.51123958e-15 290.999983,1.79086089 290.999983,3.99999976 L290.999,4.999 L295.999982,4.9999997 C298.761406,4.9999997 300.999982,7.23857582 300.999982,9.9999994 L301.000083,21.049384 C306.053357,21.5511552 309.999982,25.8146849 309.999982,30.9999982 L309.999982,48.9999993 C309.999982,54.1853126 306.053357,58.4488423 301.000083,58.9506135 L300.999982,70 C300.999982,72.7614236 298.761406,74.9999997 295.999982,74.9999997 L290.999,74.999 L290.999983,76.0000002 C290.999983,78.2091391 289.209122,80 286.999983,80 L22.9999986,80 C20.7908598,80 18.9999989,78.2091391 18.9999989,76.0000002 L18.999,74.999 L13.9999992,74.9999997 C11.2385756,74.9999997 8.99999946,72.7614236 8.99999946,70 L8.99889975,58.9505143 C3.94610449,58.4482805 5.42950045e-13,54.184971 5.40012479e-13,48.9999993 L5.40012479e-13,30.9999982 C5.3770982e-13,25.8150265 3.94610449,21.551717 8.99889975,21.0494832 L8.99999946,9.9999994 C8.99999946,7.23857582 11.2385756,4.9999997 13.9999992,4.9999997 L18.999,4.999 L18.9999989,3.99999976 C18.9999989,1.79086089 20.7908598,-6.69961513e-15 22.9999986,-7.10542736e-15 L286.999983,-7.10542736e-15 Z" id="合并形状"></path>
                </g>
            </g>
        </g>
    </g>
</svg>