<?xml version="1.0" encoding="UTF-8"?>
<svg width="96px" height="96px" viewBox="0 0 96 96" version="1.1" xmlns="http://www.w3.org/2000/svg" xmlns:xlink="http://www.w3.org/1999/xlink">
    <!-- Generator: Sketch 60.1 (88133) - https://sketch.com -->
    <title>编组 2</title>
    <desc>Created with Sketch.</desc>
    <defs>
        <circle id="path-1" cx="40" cy="40" r="40"></circle>
        <filter x="-12.5%" y="-12.5%" width="135.0%" height="135.0%" filterUnits="objectBoundingBox" id="filter-2">
            <feOffset dx="4" dy="4" in="SourceAlpha" result="shadowOffsetOuter1"></feOffset>
            <feGaussianBlur stdDeviation="4" in="shadowOffsetOuter1" result="shadowBlurOuter1"></feGaussianBlur>
            <feColorMatrix values="0 0 0 0 1   0 0 0 0 1   0 0 0 0 1  0 0 0 0.24 0" type="matrix" in="shadowBlurOuter1"></feColorMatrix>
        </filter>
    </defs>
    <g id="页面-1" stroke="none" stroke-width="1" fill="none" fill-rule="evenodd">
        <g id="解经-解卦详情" transform="translate(-1675.000000, -196.000000)">
            <g id="编组-3" transform="translate(1671.000000, 200.000000)">
                <g id="编组-2" transform="translate(8.000000, 0.000000)">
                    <g id="椭圆形">
                        <use fill="black" fill-opacity="1" filter="url(#filter-2)" xlink:href="#path-1"></use>
                        <use fill="#00C557" fill-rule="evenodd" xlink:href="#path-1"></use>
                    </g>
                    <g id="分享" transform="translate(18.909091, 18.909091)" fill="#FFFFFF">
                        <path d="M34.9150281,14.4788857 C38.9093612,14.4788857 42.1474081,11.2376768 42.1474081,7.23944287 C42.1474081,3.24120898 38.9093612,0 34.9150281,0 C30.9206949,0 27.6826481,3.24120898 27.6826481,7.23944287 C27.6930442,7.59501363 27.7252488,7.94960956 27.7790798,8.30122784 L12.49465,14.1410451 C9.84196368,11.3249741 5.44561479,11.0955991 2.51481961,13.6203577 C-0.415975574,16.1451163 -0.844381325,20.5308175 1.54232701,23.5760175 C3.92903534,26.6212175 8.28650519,27.2486074 11.433901,25.0002094 L21.7520965,31.9018116 C21.3026954,32.8520288 21.0720221,33.8910722 21.0770743,34.9423776 C21.0770743,38.9406115 24.3151211,42.1818205 28.3094543,42.1818205 C32.3037875,42.1818205 35.5418343,38.9406115 35.5418343,34.9423776 C35.5418343,30.9441437 32.3037875,27.7029347 28.3094543,27.7029347 C26.4127528,27.6902613 24.58979,28.437537 23.2467883,29.7782417 L13.2661039,23.0696913 C14.5860858,21.0830227 14.8388093,18.5713895 13.941126,16.3611409 L28.5987495,10.7143754 C29.8395465,13.0486784 32.2735316,14.4993368 34.9150281,14.4788857 Z M7.19090474,23.6971097 C5.31876095,23.6971097 3.63096048,22.5682562 2.91452206,20.8369318 C2.19808364,19.1056074 2.59409754,17.1127667 3.9179031,15.7876684 C5.24170866,14.46257 7.23260505,14.0661694 8.96224037,14.7833074 C10.6918757,15.5004455 11.8196279,17.1898942 11.8196279,19.0638662 C11.8196279,21.6227359 9.74727797,23.6971097 7.19090474,23.6971097 Z M28.3094543,30.3091342 C30.1815981,30.3091342 31.8693986,31.4379877 32.585837,33.1693121 C33.3022754,34.9006365 32.9062615,36.8934771 31.582456,38.2185755 C30.2586504,39.5436738 28.267754,39.9400745 26.5381187,39.2229364 C24.8084833,38.5057984 23.6807311,36.8163497 23.6807311,34.9423776 C23.6807311,32.3835079 25.7530811,30.3091342 28.3094543,30.3091342 Z M34.9150281,2.60619945 C36.7871719,2.60619945 38.4749723,3.73505296 39.1914107,5.46637738 C39.9078492,7.19770181 39.5118353,9.19054243 38.1880297,10.5156408 C36.8642241,11.8407391 34.8733277,12.2371398 33.1436924,11.5200017 C31.4140571,10.8028636 30.2863049,9.11341493 30.2863049,7.23944287 C30.2863049,4.6805732 32.3586548,2.60619945 34.9150281,2.60619945 L34.9150281,2.60619945 Z" id="形状" stroke="#FFFFFF" fill-rule="nonzero"></path>
                        <path d="M23.5360835,35.1354294 C23.5360835,37.8275736 25.7163684,40.0099876 28.4058861,40.0099876 C31.0954037,40.0099876 33.2756886,37.8275736 33.2756886,35.1354294 C33.2756886,32.4432853 31.0954037,30.2608712 28.4058861,30.2608712 C25.7163684,30.2608712 23.5360835,32.4432853 23.5360835,35.1354294 L23.5360835,35.1354294 Z" id="路径"></path>
                    </g>
                </g>
            </g>
        </g>
    </g>
</svg>