<?xml version="1.0" encoding="UTF-8"?>
<svg width="42px" height="40px" viewBox="0 0 42 40" version="1.1" xmlns="http://www.w3.org/2000/svg" xmlns:xlink="http://www.w3.org/1999/xlink">
    <!-- Generator: Sketch 60.1 (88133) - https://sketch.com -->
    <title>人脸定位</title>
    <desc>Created with Sketch.</desc>
    <g id="面相常规网页版" stroke="none" stroke-width="1" fill="none" fill-rule="evenodd">
        <g id="面相探索首页" transform="translate(-865.000000, -990.000000)" fill="#FFFFFF" fill-rule="nonzero">
            <g id="编组-4" transform="translate(805.000000, 970.000000)">
                <g id="分组-2-copy" transform="translate(59.999996, 15.999999)">
                    <g id="人脸定位" transform="translate(0.000000, 4.000000)">
                        <path d="M32.68459,18.7289348 L32.68459,17.8223335 C32.68459,9.84515269 27.4698931,5.49437733 20.9944506,5.49437733 C14.5190081,5.49437733 9.30431121,9.84515269 9.30431121,17.8223335 L9.30431121,19.0933977 C9.30431121,19.4578606 9.30431121,19.6355362 9.48506324,19.8177676 C10.2080715,27.2528099 15.0612642,34.5010649 20.9944506,34.5010649 C26.927637,34.5010649 31.7853485,27.0660227 32.5038379,19.8177676 C32.68459,19.4533047 32.68459,19.2756291 32.68459,19.0933977 L32.68459,18.7289348 Z M21.8936921,21.8132017 L21.8936921,16.3735936 C27.4698931,16.555825 30.5246029,18.0045649 30.886107,18.9111663 L30.886107,19.0933977 C30.5291217,20.1822305 27.4698931,21.6309703 21.8936921,21.8132017 Z M11.288065,19.2756291 L11.288065,18.9111663 C11.6495692,18.0045649 14.704279,16.555825 20.0997279,16.3735936 L20.0997279,21.8132017 C14.8805122,21.6309703 11.6450503,20.1822305 11.288065,19.2756291 L11.288065,19.2756291 Z M30.705355,16.555825 C28.7261199,15.4669922 25.309906,14.7426223 21.8936921,14.7426223 L21.8936921,7.30758003 C26.9321557,7.6720429 30.3483697,11.2984483 30.705355,16.555825 Z M20.0952091,7.30758003 L20.0952091,14.5603909 C16.6789952,14.7426223 13.2627813,15.2847608 11.2835463,16.3735936 C11.8258024,11.2984483 15.0612643,7.84971852 20.0952091,7.30758003 Z M11.6450503,21.8132017 C13.6242854,22.9020345 16.8597472,23.444173 20.0952091,23.6264045 L20.0952091,32.692418 C16.3220099,31.9634923 12.905796,27.2528099 11.6450503,21.8132017 L11.6450503,21.8132017 Z M21.8936921,32.6878622 L21.8936921,23.6218487 C25.129154,23.6218487 28.3691346,22.8974788 30.3438508,21.808646 C29.2683761,27.4304855 25.6714101,31.9634923 21.8936921,32.6878622 L21.8936921,32.6878622 Z" id="形状"></path>
                        <path d="M40.8681394,39.708328 L30.6014225,39.708328 C30.0953167,39.708328 29.7338126,39.3438652 29.7338126,38.8336172 C29.7338126,38.3233692 30.1676176,37.9589063 30.6014225,37.9589063 L39.9282287,37.9589063 L39.9282287,29.6491532 C39.9282287,29.1389051 40.3620337,28.7744423 40.7958387,28.7744423 C41.3019444,28.7744423 41.6634485,29.1389052 41.6634485,29.6491532 L41.6634485,38.8336172 C41.7357494,39.3438652 41.3742452,39.708328 40.8681394,39.708328 Z" id="路径"></path>
                        <path d="M40.8319891,11.5900186 C40.3258833,11.5900186 39.9643792,11.2255557 39.9643792,10.7153078 L39.9643792,2.04109175 L30.5652721,2.04109175 C30.0591663,2.04109175 29.6976622,1.67662888 29.6976622,1.16638091 C29.6976622,0.65613293 30.1314672,0.291670061 30.5652721,0.291670061 L40.7596882,0.291670061 C41.265794,0.291670061 41.6272981,0.65613293 41.6272981,1.16638091 L41.6272981,10.7153078 C41.6995989,11.2255558 41.3380948,11.5900186 40.8319891,11.5900186 L40.8319891,11.5900186 Z" id="路径"></path>
                        <path d="M10.4837184,2.04109175 L2.09682283,2.04109175 L2.09682283,10.7153078 C2.09682283,11.2255558 1.66301788,11.5900186 1.22921296,11.5900186 C0.723107176,11.5900186 0.361603085,11.2255557 0.361603085,10.7153078 L0.361603085,1.16638091 C0.361603085,0.65613293 0.795408002,0.291670061 1.22921296,0.291670061 L10.5560192,0.291670061 C11.062125,0.291670061 11.4236291,0.65613293 11.4236291,1.16638091 C11.4236291,1.67662888 10.9898241,2.04109175 10.4837184,2.04109175 Z" id="路径"></path>
                        <path d="M1.15691213,28.7015497 C1.66301791,28.7015497 2.024522,29.0660126 2.024522,29.5762606 L2.024522,37.8860137 L10.4837184,37.8860137 C10.9898242,37.8860137 11.3513282,38.2504766 11.3513282,38.7607246 C11.3513282,39.2709726 10.9175233,39.6354355 10.4837184,39.6354355 L1.15691213,39.6354355 C0.650806351,39.6354355 0.28930226,39.2709726 0.28930226,38.7607246 L0.28930226,29.6491532 C0.28930226,29.1389051 0.650806389,28.7015497 1.15691213,28.7015497 L1.15691213,28.7015497 Z" id="路径"></path>
                    </g>
                </g>
            </g>
        </g>
    </g>
</svg>