<?xml version="1.0" encoding="UTF-8"?>
<svg width="114px" height="108px" viewBox="0 0 114 108" version="1.1" xmlns="http://www.w3.org/2000/svg" xmlns:xlink="http://www.w3.org/1999/xlink">
    <title>画板备份 3</title>
    <g id="页面-1" stroke="none" stroke-width="1" fill="none" fill-rule="evenodd">
        <g id="画板备份-3" transform="translate(0.949044, 0.619907)" fill="#6990D6" fill-rule="nonzero">
            <path d="M56.3432251,7.10542736e-15 L57.2887134,0.0063864 C87.5464013,0.4314058 112.231281,21.7440334 112.727136,48.3337706 L112.732057,49.3174477 L112.725348,49.9605293 L112.690757,51.0388344 C111.522904,77.1003144 87.0683523,97.7715464 57.2644916,98.1900654 L56.3391743,98.1961954 L55.022128,98.1864364 C48.366178,98.0666354 41.7707594,96.8939454 35.4475351,94.7013244 L17.055395,105.694035 L16.631873,105.922749 C15.752461,106.360825 14.7996814,106.633582 13.660929,106.7368 L13.2409958,106.756498 L12.9440541,106.757594 L12.4476859,106.735295 C10.9543687,106.61708 9.5201728,106.082343 8.2006848,105.094464 L7.9089274,104.85749 L7.7114855,104.684043 L7.3684205,104.355012 C5.2774344,102.214493 4.5583911,99.0831744 5.5408669,96.1278514 L5.7095933,95.6831134 L12.3411022,79.7904504 L11.5732051,78.9384074 C4.5144756,70.9261954 0.4947248,61.2526023 0.0427855,51.0365171 C0.0142728,50.3919893 0,49.7460793 0,49.0990771 C0,22.2208935 24.8250899,0.4497391 55.4399111,0.0065217 L56.3432251,7.10542736e-15 Z M35.8941258,61.0994005 C34.921337,59.8818829 33.1371604,59.6766927 31.9090557,60.6410953 C30.680951,61.6054979 30.4739765,63.3742937 31.4467652,64.5918113 C37.0935707,71.6592094 46.8928179,75.9809914 57.5794549,75.9809914 C68.1264504,75.9809914 77.8134073,71.7720884 83.4971583,64.8570886 C84.4868343,63.6530221 84.3045493,61.8815582 83.0900133,60.9004133 C81.8754763,59.9192683 80.0886083,60.0999819 79.0989313,61.3040484 C74.5351852,66.8564218 66.4799234,70.3563674 57.5794549,70.3563674 C48.5640941,70.3563674 40.4208524,66.7649362 35.8941258,61.0994005 Z M73.2403216,35.8800934 C70.1482639,35.8800934 67.6416559,38.2946676 67.6416559,41.2731959 C67.6416559,44.2517242 70.1482639,46.6662984 73.2403216,46.6662984 C76.3323793,46.6662984 78.8389873,44.2517242 78.8389873,41.2731959 C78.8389873,38.2946676 76.3323793,35.8800934 73.2403216,35.8800934 Z M41.1353331,35.8800934 C38.0432754,35.8800934 35.5366674,38.2946676 35.5366674,41.2731959 C35.5366674,44.2517242 38.0432754,46.6662984 41.1353331,46.6662984 C44.2273908,46.6662984 46.7339988,44.2517242 46.7339988,41.2731959 C46.7339988,38.2946676 44.2273908,35.8800934 41.1353331,35.8800934 Z" id="形状结合"></path>
        </g>
    </g>
</svg>