<?xml version="1.0" encoding="UTF-8"?>
<svg width="66px" height="66px" viewBox="0 0 66 66" version="1.1" xmlns="http://www.w3.org/2000/svg" xmlns:xlink="http://www.w3.org/1999/xlink">
    <!-- Generator: Sketch 60.1 (88133) - https://sketch.com -->
    <title>quxiao</title>
    <desc>Created with Sketch.</desc>
    <g id="面相常规网页版" stroke="none" stroke-width="1" fill="none" fill-rule="evenodd">
        <g id="面相探索首页-理论简介" transform="translate(-939.000000, -943.000000)" fill="#FFFFFF">
            <g id="分组-2" transform="translate(598.000000, 85.000000)">
                <g id="quxiao" transform="translate(341.000000, 858.000000)">
                    <path d="M33,66 C14.8389262,66 0,51.1610738 0,33 C0,14.8389262 14.8389262,0 33,0 C51.1610738,0 66,14.8389262 66,33 C66,51.1610738 51.1610738,66 33,66 Z M33,3.32214765 C16.6107383,3.32214765 3.32214765,16.6107383 3.32214765,33 C3.32214765,49.3892617 16.6107383,62.6778523 33,62.6778523 C49.3892617,62.6778523 62.6778523,49.3892617 62.6778523,33 C62.6778523,16.6107383 49.3892617,3.32214765 33,3.32214765 Z" id="形状" fill-rule="nonzero"></path>
                    <line x1="23.641791" y1="24.6268657" x2="43.3432836" y2="44.3283582" id="路径"></line>
                    <path d="M43.5919666,45.3134328 C43.1477173,45.3134328 42.703468,45.2037151 42.3702809,44.8745618 L23.1564969,25.4545192 C22.4901229,24.7962126 22.4901229,23.8087528 23.1564969,23.1504463 C23.8228709,22.4921398 24.822432,22.4921398 25.488806,23.1504463 L44.8136523,42.4607712 C45.4800263,43.1190777 45.4800263,44.1065375 44.8136523,44.7648441 C44.4804653,45.0939973 44.036216,45.3134328 43.5919666,45.3134328 Z" id="路径"></path>
                    <line x1="43.3432836" y1="24.6268657" x2="23.641791" y2="44.3283582" id="路径"></line>
                    <path d="M24.3781826,45.3134328 C23.9339333,45.3134328 23.4896839,45.2031812 23.1564969,44.8724262 C22.4901229,44.2109162 22.4901229,43.2186513 23.1564969,42.5571413 L42.4813433,23.1528489 C43.1477173,22.4913389 44.1472783,22.4913389 44.8136523,23.1528489 C45.4800263,23.8143589 45.4800263,24.8066238 44.8136523,25.4681338 L25.488806,44.7621745 C25.155619,45.0929295 24.7113696,45.3134328 24.3781826,45.3134328 Z" id="路径"></path>
                </g>
            </g>
        </g>
    </g>
</svg>