<?xml version="1.0" encoding="UTF-8"?>
<svg width="786px" height="577px" viewBox="0 0 786 577" version="1.1" xmlns="http://www.w3.org/2000/svg" xmlns:xlink="http://www.w3.org/1999/xlink">
    <!-- Generator: Sketch 60.1 (88133) - https://sketch.com -->
    <title>人脸定位</title>
    <desc>Created with Sketch.</desc>
    <g id="面相常规网页版" stroke="none" stroke-width="1" fill="none" fill-rule="evenodd">
        <g id="面相探索-生成报告中" transform="translate(-143.000000, -237.000000)" fill="#85A8E6" fill-rule="nonzero">
            <g id="编组-2" transform="translate(143.000000, 237.000000)">
                <g id="人脸定位">
                    <path d="M782.970835,576.67624 L747.330659,576.67624 C745.573749,576.67624 744.318813,575.396975 744.318813,573.606004 C744.318813,571.815034 745.824736,570.535769 747.330659,570.535769 L779.708002,570.535769 L779.708002,541.368534 C779.708002,539.577563 781.213925,538.298299 782.719848,538.298299 C784.476759,538.298299 785.731694,539.577563 785.731694,541.368534 L785.731694,573.606004 C785.982681,575.396975 784.727746,576.67624 782.970835,576.67624 Z" id="路径"></path>
                    <path d="M782.845342,39.7809677 C781.088432,39.7809677 779.833496,38.501703 779.833496,36.7107325 L779.833496,6.26423248 L747.205165,6.26423248 C745.448255,6.26423248 744.193319,4.98496774 744.193319,3.19399723 C744.193319,1.40302672 745.699242,0.123761976 747.205165,0.123761976 L782.594355,0.123761976 C784.351265,0.123761976 785.606201,1.40302672 785.606201,3.19399723 L785.606201,36.7107325 C785.857188,38.5017031 784.602252,39.7809677 782.845342,39.7809677 L782.845342,39.7809677 Z" id="路径"></path>
                    <path d="M35.4934817,6.26423248 L6.37897112,6.26423248 L6.37897112,36.7107325 C6.37897112,38.5017031 4.87304811,39.7809677 3.36712524,39.7809677 C1.61021506,39.7809677 0.355279357,38.501703 0.355279357,36.7107325 L0.355279357,3.19399723 C0.355279357,1.40302672 1.86120223,0.123761976 3.36712524,0.123761976 L35.7444688,0.123761976 C37.501379,0.123761976 38.7563147,1.40302672 38.7563147,3.19399723 C38.7563147,4.98496774 37.2503917,6.26423248 35.4934817,6.26423248 Z" id="路径"></path>
                    <path d="M3.11613807,538.042446 C4.87304824,538.042446 6.12798395,539.32171 6.12798395,541.112681 L6.12798395,570.279916 L35.4934817,570.279916 C37.2503918,570.279916 38.5053275,571.559181 38.5053275,573.350151 C38.5053275,575.141122 36.9994047,576.420387 35.4934817,576.420387 L3.11613807,576.420387 C1.35922789,576.420387 0.104292189,575.141122 0.104292189,573.350151 L0.104292189,541.368534 C0.104292189,539.577563 1.35922803,538.042446 3.11613807,538.042446 L3.11613807,538.042446 Z" id="路径"></path>
                </g>
            </g>
        </g>
    </g>
</svg>